<svg width="43" height="51" viewBox="0 0 43 51" fill="none" xmlns="http://www.w3.org/2000/svg">
<path id="Vector" d="M23 50.9753L22.375 43.4753H21.75C15.8333 43.4753 10.8125 41.4128 6.6875 37.2878C2.5625 33.1628 0.5 28.142 0.5 22.2253C0.5 16.3087 2.5625 11.2878 6.6875 7.16284C10.8125 3.03784 15.8333 0.975342 21.75 0.975342C24.7083 0.975342 27.4692 1.52701 30.0325 2.63034C32.5958 3.73368 34.8458 5.25451 36.7825 7.19284C38.7192 9.13118 40.2392 11.3812 41.3425 13.9428C42.4458 16.5045 42.9983 19.2653 43 22.2253C43 25.3503 42.4892 28.3503 41.4675 31.2253C40.4458 34.1003 39.05 36.767 37.28 39.2253C35.51 41.6837 33.4058 43.9128 30.9675 45.9128C28.5292 47.9128 25.8733 49.6003 23 50.9753ZM28 41.8503C30.9583 39.3503 33.365 36.4228 35.22 33.0678C37.075 29.7128 38.0017 26.0987 38 22.2253C38 17.6837 36.4267 13.8403 33.28 10.6953C30.1333 7.55034 26.29 5.97701 21.75 5.97534C17.2083 5.97534 13.365 7.54868 10.22 10.6953C7.075 13.842 5.50167 17.6853 5.5 22.2253C5.5 26.767 7.07333 30.6103 10.22 33.7553C13.3667 36.9003 17.21 38.4737 21.75 38.4753H28V41.8503ZM21.6875 35.9128C22.3958 35.9128 23 35.6628 23.5 35.1628C24 34.6628 24.25 34.0587 24.25 33.3503C24.25 32.642 24 32.0378 23.5 31.5378C23 31.0378 22.3958 30.7878 21.6875 30.7878C20.9792 30.7878 20.375 31.0378 19.875 31.5378C19.375 32.0378 19.125 32.642 19.125 33.3503C19.125 34.0587 19.375 34.6628 19.875 35.1628C20.375 35.6628 20.9792 35.9128 21.6875 35.9128ZM19.875 27.9753H23.625C23.625 26.7253 23.75 25.8503 24 25.3503C24.25 24.8503 25.0417 23.9337 26.375 22.6003C27.125 21.8503 27.75 21.0378 28.25 20.1628C28.75 19.2878 29 18.3503 29 17.3503C29 15.2253 28.2808 13.6312 26.8425 12.5678C25.4042 11.5045 23.7067 10.9737 21.75 10.9753C19.9167 10.9753 18.375 11.4862 17.125 12.5078C15.875 13.5295 15 14.7687 14.5 16.2253L18 17.6003C18.2083 16.892 18.6042 16.1937 19.1875 15.5053C19.7708 14.817 20.625 14.4737 21.75 14.4753C22.875 14.4753 23.7183 14.7878 24.28 15.4128C24.8417 16.0378 25.1233 16.7253 25.125 17.4753C25.125 18.1837 24.9167 18.8195 24.5 19.3828C24.0833 19.9462 23.5833 20.5187 23 21.1003C21.5417 22.3503 20.6558 23.3403 20.3425 24.0703C20.0292 24.8003 19.8733 26.102 19.875 27.9753Z" fill="#6DA800"/>
</svg>
