<svg width="47" height="48" viewBox="0 0 47 48" fill="none" xmlns="http://www.w3.org/2000/svg">
<path id="Vector" d="M28.2562 7.30601C28.2562 7.30601 28.4958 11.4102 32.1167 15.0289C35.7375 18.6498 39.8396 18.8914 39.8396 18.8914L41.7708 16.9602C43.3071 15.4239 44.1702 13.3402 44.1702 11.1675C44.1702 8.99478 43.3071 6.91108 41.7708 5.37476C40.2345 3.83844 38.1508 2.97534 35.9781 2.97534C33.8054 2.97534 31.7217 3.83844 30.1854 5.37476L28.2542 7.30601L23.3375 12.2227M39.8396 18.8893L28.8812 29.8518L22.4208 36.3081L22.0875 36.6435C20.8833 37.8456 20.2812 38.4477 19.6187 38.9643C18.8369 39.5746 17.991 40.0978 17.0958 40.5248C16.3375 40.8852 15.5312 41.1539 13.9167 41.6914L7.08124 43.9706M7.08124 43.9706L5.41041 44.5289C5.02094 44.6595 4.60276 44.6789 4.20288 44.5849C3.803 44.4909 3.43727 44.2872 3.14681 43.9967C2.85634 43.7062 2.65265 43.3405 2.55862 42.9406C2.4646 42.5407 2.48398 42.1226 2.61457 41.7331L3.17291 40.0623M7.08124 43.9706L3.17291 40.0623M3.17291 40.0623L5.45207 33.2268C5.98957 31.6123 6.25832 30.806 6.61874 30.0477C7.04582 29.1518 7.56874 28.306 8.17916 27.5248C8.69582 26.8623 9.29791 26.2602 10.5 25.0581L16.0458 19.5143" stroke="#6DA800" stroke-width="5" stroke-linecap="round"/>
</svg>
