<svg width="30" height="23" viewBox="0 0 30 23" fill="none" xmlns="http://www.w3.org/2000/svg">
<path d="M25.3838 1.96823C23.4837 1.08249 21.4265 0.43962 19.2836 0.0681809C19.2648 0.0675801 19.2461 0.071106 19.2289 0.0785109C19.2116 0.0859158 19.1961 0.0970198 19.1836 0.11104C18.9265 0.582481 18.6265 1.19678 18.4265 1.66822C16.1535 1.32536 13.842 1.32536 11.5691 1.66822C11.3691 1.1825 11.0691 0.582481 10.7977 0.11104C10.7834 0.0824674 10.7405 0.0681809 10.6977 0.0681809C8.55475 0.43962 6.51184 1.08249 4.5975 1.96823C4.58322 1.96823 4.56893 1.98252 4.55465 1.99681C0.668824 7.81125 -0.402634 13.4685 0.125952 19.0687C0.125952 19.0973 0.140238 19.1258 0.16881 19.1401C2.74031 21.0259 5.21181 22.1688 7.65473 22.926C7.69759 22.9402 7.74045 22.926 7.75473 22.8974C8.32618 22.1116 8.84048 21.283 9.28335 20.4116C9.31192 20.3545 9.28335 20.2973 9.2262 20.283C8.41189 19.9687 7.64044 19.5973 6.88328 19.1687C6.82614 19.1401 6.82614 19.0544 6.86899 19.0116C7.02614 18.8973 7.18329 18.7687 7.34044 18.6544C7.36901 18.6258 7.41187 18.6258 7.44044 18.6401C12.3549 20.883 17.655 20.883 22.5123 18.6401C22.5409 18.6258 22.5837 18.6258 22.6123 18.6544C22.7694 18.783 22.9266 18.8973 23.0837 19.0258C23.1409 19.0687 23.1409 19.1544 23.0694 19.183C22.3266 19.6259 21.5408 19.983 20.7265 20.2973C20.6694 20.3116 20.6551 20.383 20.6694 20.4259C21.1265 21.2973 21.6408 22.1259 22.198 22.9117C22.2408 22.926 22.2837 22.9402 22.3266 22.926C24.7838 22.1688 27.2553 21.0259 29.8268 19.1401C29.8553 19.1258 29.8696 19.0973 29.8696 19.0687C30.4982 12.5971 28.8267 6.98266 25.4409 1.99681C25.4266 1.98252 25.4124 1.96823 25.3838 1.96823ZM10.0262 15.6543C8.55476 15.6543 7.32615 14.2971 7.32615 12.6257C7.32615 10.9542 8.52618 9.59701 10.0262 9.59701C11.5406 9.59701 12.7406 10.9685 12.7263 12.6257C12.7263 14.2971 11.5263 15.6543 10.0262 15.6543ZM19.9836 15.6543C18.5122 15.6543 17.2836 14.2971 17.2836 12.6257C17.2836 10.9542 18.4836 9.59701 19.9836 9.59701C21.498 9.59701 22.698 10.9685 22.6837 12.6257C22.6837 14.2971 21.498 15.6543 19.9836 15.6543Z" fill="#1E1E1E"/>
</svg>
