<svg width="141" height="35" viewBox="0 0 141 35" fill="none" xmlns="http://www.w3.org/2000/svg">
<path d="M16.7541 35C26.0072 35 33.5083 27.4509 33.5083 18.1387C33.5083 8.82645 26.0072 1.27737 16.7541 1.27737C7.50109 1.27737 0 8.82645 0 18.1387C0 27.4509 7.50109 35 16.7541 35Z" fill="#1E1E1E"/>
<path d="M16.9798 17.94C16.9516 18.2238 16.8106 18.3658 16.5285 18.3942C16.6695 18.2238 16.8106 18.0819 16.9798 17.94Z" fill="white"/>
<path d="M16.5285 18.3658C16.8106 18.3374 16.9516 18.1955 16.9798 17.9116C16.8106 18.0819 16.6695 18.2238 16.5285 18.3658Z" fill="#1E1E1E"/>
<path d="M24.2851 17.2303C24.144 17.06 23.9748 16.9465 24.1158 16.6626C24.6799 15.5839 24.7081 14.4485 24.4543 13.2847C24.2851 12.4615 23.862 11.6951 23.2697 11.0422C22.1978 9.87835 20.6183 9.14031 19.067 9.3674C18.6439 9.42417 18.2491 9.48094 17.826 9.53771C17.7978 9.53771 17.7696 9.53771 17.7131 9.53771C17.6285 9.53771 17.5439 9.53772 17.4593 9.5661C16.9798 9.62287 16.8952 9.39579 16.8388 9.02677C16.7542 8.40227 16.6413 7.74939 16.5285 7.1249C16.5003 6.98297 16.5285 6.69911 16.2182 6.75588C15.7387 6.84104 15.1746 6.84104 14.808 7.09651C14.5541 7.26683 14.8362 7.80617 14.8926 8.1468C14.9208 8.43066 14.9772 8.71452 15.0054 8.99838C15.1746 9.90673 15.1464 9.84995 14.3003 10.0203C13.8772 10.1054 13.7644 9.9919 13.7079 9.62288C13.6515 9.25386 13.5951 8.88484 13.5105 8.48743C13.2849 7.21006 13.2849 7.23845 11.9874 7.46553C11.5925 7.55069 11.5643 7.69262 11.6207 8.03326C11.7618 8.65775 11.8182 9.31062 11.9592 9.93512C12.0156 10.219 12.0156 10.3609 11.8464 10.4461C11.8464 10.4461 11.8464 10.4461 11.8182 10.4461C11.0002 10.588 10.154 10.7299 9.33607 10.8435C9.19504 10.8719 9.05401 10.9003 8.94119 10.957C8.82837 10.9854 8.74375 11.0422 8.65913 11.099C8.29246 11.3544 8.03861 11.7518 7.89758 12.2344V12.3196C7.89758 12.3479 7.89758 12.3479 7.89758 12.3479C7.89758 12.3479 7.89758 12.3479 7.89758 12.3763V12.4047L7.86937 12.4331C7.75655 12.7169 7.81297 13.0008 7.84117 13.3131C8.26426 16.0665 8.68733 18.7916 9.13863 21.545C9.33606 22.7372 9.5053 23.9011 9.70274 25.0933C9.73094 25.1784 9.73095 25.292 9.75915 25.3771C10.0694 26.6545 10.972 27.2506 12.3541 27.0235L14.4131 26.7113C14.5259 26.7681 14.5823 26.91 14.6105 27.1938C14.6387 27.8183 14.808 28.4712 14.8644 29.0957C14.8926 29.4363 15.0336 29.5215 15.3721 29.4931C16.7259 29.3796 16.7259 29.3796 16.5285 28.017C16.5003 27.7048 16.4721 27.3925 16.3875 27.1087C16.2747 26.7397 16.3029 26.541 16.4721 26.399L17.4875 26.2287C17.6567 26.2855 17.7696 26.4274 17.7696 26.768C17.7696 27.1654 17.8824 27.5629 17.9388 27.9603C18.108 29.0957 18.108 29.0673 19.2363 28.9254C19.6875 28.8686 19.9132 28.7835 19.8004 28.2157C19.6593 27.5912 19.6593 26.9384 19.5747 26.3139C19.6029 26.2855 19.6311 26.2287 19.6311 26.2003L19.5747 25.8881L21.0132 25.661C21.4927 25.5758 21.9722 25.4623 22.4235 25.2352C22.6209 25.15 22.7902 25.0649 22.9594 24.9513C23.2414 24.781 23.5235 24.5823 23.7774 24.3836C24.2851 23.9578 24.7081 23.4185 24.9902 22.794C25.9774 20.8354 25.78 18.9335 24.2851 17.2303ZM21.2389 21.7437L18.8696 22.1127L18.1644 17.6561C18.108 17.3723 18.0798 17.1168 17.9952 16.9181C17.8824 16.5491 17.7413 16.2652 17.6003 16.0665C17.5157 15.953 17.3747 15.8678 17.2619 15.811C17.0362 15.7259 16.7542 15.6975 16.4157 15.7543C16.2465 15.7826 16.0772 15.811 15.8798 15.8678C15.6823 15.9246 15.5131 15.953 15.3721 16.0097L16.3875 22.5101L14.0182 22.8792L12.749 14.7607C13.1438 14.5904 13.6233 14.3917 14.2438 14.193C14.8644 13.9943 15.5131 13.824 16.2182 13.7105C16.9234 13.5969 17.5439 13.5969 18.0234 13.7105C18.5311 13.824 18.926 14.0227 19.2645 14.335C19.6029 14.6188 19.8568 15.0162 20.0542 15.4704C20.2517 15.9246 20.3927 16.4355 20.4773 17.0033L21.2389 21.7437Z" fill="white"/>
<path d="M39.6571 8.91323C40.6725 8.62937 41.9982 8.3455 43.6059 8.09003C45.2418 7.83455 47.0188 7.69262 48.9932 7.69262C50.8548 7.69262 52.4061 7.9481 53.6471 8.45905C54.8882 8.97 55.9036 9.67965 56.6369 10.6164C57.3703 11.5247 57.9062 12.6602 58.2164 13.9376C58.5267 15.2433 58.6677 16.6626 58.6677 18.1955V31.0827H53.3933V19.0471C53.3933 17.8265 53.3087 16.7762 53.1676 15.9246C52.9984 15.073 52.7445 14.3633 52.3779 13.824C52.0112 13.2847 51.5317 12.8873 50.9112 12.6318C50.2907 12.3763 49.5291 12.2628 48.6265 12.2628C47.9496 12.2628 47.2726 12.3196 46.5393 12.4047C45.806 12.4899 45.2701 12.575 44.9316 12.6318V31.1111H39.6571V8.91323Z" fill="#1E1E1E"/>
<path d="M74.4629 31.4234C72.8552 31.4234 71.2474 31.3666 69.6397 31.2814C68.0038 31.1679 66.5935 30.9692 65.3807 30.6569V1.16383C66.0294 1.05029 66.7063 0.936747 67.4397 0.823202C68.173 0.709658 68.9064 0.652881 69.6679 0.596109C70.4295 0.539337 71.1628 0.482565 71.8962 0.454179C72.6295 0.425793 73.3347 0.397412 74.0116 0.397412C75.845 0.397412 77.5373 0.539342 79.1168 0.823202C80.6963 1.10706 82.0502 1.56124 83.1784 2.21412C84.3349 2.867 85.2092 3.69019 85.858 4.76886C86.5067 5.81915 86.817 7.1249 86.817 8.65775C86.817 10.077 86.4785 11.326 85.8015 12.3479C85.1246 13.3698 84.1656 14.193 82.9528 14.7891C84.7862 15.4136 86.14 16.322 87.0144 17.5142C87.8888 18.7064 88.3119 20.2393 88.3119 22.0843C88.3119 25.2068 87.1836 27.5629 84.9272 29.1241C82.6143 30.6569 79.145 31.4234 74.4629 31.4234ZM70.7679 13.086H74.6321C76.7193 13.086 78.3553 12.7737 79.5399 12.1776C80.7245 11.5815 81.3169 10.5028 81.3169 8.96999C81.3169 7.52231 80.6963 6.47202 79.4553 5.84753C78.2142 5.22304 76.6065 4.93918 74.6321 4.93918C73.786 4.93918 73.0526 4.96756 72.4039 4.99595C71.7551 5.02433 71.191 5.08111 70.7397 5.13788L70.7679 13.086ZM70.7679 17.429V26.6829C71.3885 26.7397 72.0372 26.7964 72.7141 26.8248C73.4193 26.8532 74.0398 26.8816 74.6321 26.8816C75.7603 26.8816 76.804 26.7964 77.7912 26.6545C78.7501 26.5126 79.5963 26.2571 80.3297 25.8881C81.0348 25.5191 81.5989 25.0365 82.022 24.412C82.4451 23.7875 82.6425 23.0211 82.6425 22.056C82.6425 20.3244 82.022 19.1322 80.7809 18.4509C79.5399 17.7697 77.7912 17.4574 75.5911 17.4574L70.7679 17.429Z" fill="#1E1E1E"/>
<path d="M114.994 0.709651V5.47851H105.715V31.0543H100.186V5.47851H90.9068V0.709651H114.994Z" fill="#1E1E1E"/>
<path d="M131.551 31.7356C129.295 31.7356 127.264 31.395 125.459 30.6853C123.654 29.9757 122.13 28.9538 120.889 27.5912C119.648 26.2287 118.689 24.5823 118.012 22.6237C117.335 20.6651 117.025 18.4226 117.025 15.8678C117.025 13.3131 117.42 11.0706 118.182 9.11192C118.943 7.15329 120.015 5.5069 121.341 4.14437C122.666 2.78183 124.246 1.75994 126.051 1.05029C127.856 0.340636 129.774 0 131.833 0C133.074 0 134.202 0.0851582 135.218 0.283861C136.233 0.482563 137.108 0.681269 137.869 0.908357C138.631 1.13545 139.251 1.39092 139.731 1.6464C140.21 1.90187 140.577 2.10057 140.774 2.21412L139.167 6.7275C138.461 6.30171 137.474 5.87592 136.177 5.47851C134.879 5.08111 133.497 4.8824 131.974 4.8824C130.677 4.8824 129.436 5.10949 128.307 5.56367C127.179 6.01785 126.192 6.69911 125.374 7.60747C124.556 8.51582 123.907 9.65125 123.428 11.0138C122.977 12.3763 122.723 13.9659 122.723 15.7827C122.723 17.4007 122.892 18.8767 123.259 20.2109C123.625 21.545 124.189 22.7088 124.923 23.7024C125.684 24.6675 126.643 25.4339 127.8 25.9732C128.956 26.5126 130.366 26.7964 131.974 26.7964C133.92 26.7964 135.5 26.5977 136.713 26.2003C137.926 25.8029 138.885 25.4339 139.533 25.0933L141 29.6067C140.662 29.8337 140.182 30.0608 139.59 30.3163C138.997 30.5434 138.292 30.7705 137.474 30.9976C136.656 31.2247 135.754 31.395 134.738 31.5369C133.808 31.6788 132.708 31.7356 131.551 31.7356Z" fill="#1E1E1E"/>
</svg>
