<svg width="133" height="34" viewBox="0 0 133 34" fill="none" xmlns="http://www.w3.org/2000/svg">
<path d="M16.1847 33.2789C24.8472 33.2789 31.8695 26.2566 31.8695 17.5942C31.8695 8.93173 24.8472 1.90943 16.1847 1.90943C7.5223 1.90943 0.5 8.93173 0.5 17.5942C0.5 26.2566 7.5223 33.2789 16.1847 33.2789Z" fill="#611F76"/>
<path d="M16.396 17.4093C16.3696 17.6734 16.2376 17.8054 15.9735 17.8318C16.1055 17.6734 16.2376 17.5414 16.396 17.4093Z" fill="#63EBD9"/>
<path d="M15.9735 17.8054C16.2376 17.779 16.3696 17.647 16.396 17.3829C16.2376 17.5414 16.1055 17.6734 15.9735 17.8054Z" fill="#FEFEFE"/>
<path d="M23.235 16.7492C23.1029 16.5908 22.9445 16.4851 23.0765 16.2211C23.6046 15.2177 23.631 14.1615 23.3934 13.0789C23.235 12.3131 22.8389 11.6002 22.2844 10.9929C21.281 9.91023 19.8023 9.22369 18.35 9.43493C17.9539 9.48774 17.5842 9.54056 17.1881 9.59337C17.1617 9.59337 17.1353 9.59337 17.0825 9.59337C17.0033 9.59337 16.9241 9.59337 16.8449 9.61977C16.396 9.67258 16.3168 9.46134 16.264 9.11807C16.1847 8.53716 16.0791 7.92983 15.9735 7.34892C15.9471 7.21689 15.9735 6.95284 15.683 7.00565C15.2341 7.08487 14.706 7.08486 14.3628 7.32251C14.1251 7.48094 14.3892 7.98265 14.442 8.29951C14.4684 8.56356 14.5212 8.82761 14.5476 9.09167C14.706 9.93664 14.6796 9.88382 13.8875 10.0423C13.4914 10.1215 13.3858 10.0159 13.333 9.67259C13.2802 9.32932 13.2273 8.98605 13.1481 8.61638C12.9369 7.42814 12.9369 7.45454 11.7222 7.66578C11.3526 7.745 11.3262 7.87703 11.379 8.19389C11.511 8.77481 11.5638 9.38212 11.6958 9.96304C11.7486 10.2271 11.7486 10.3591 11.5902 10.4383C11.5902 10.4383 11.5902 10.4383 11.5638 10.4383C10.7981 10.5704 10.0059 10.7024 9.24015 10.808C9.10812 10.8344 8.9761 10.8608 8.87048 10.9136C8.76486 10.94 8.68564 10.9929 8.60642 11.0457C8.26316 11.2833 8.0255 11.653 7.89348 12.1019V12.1811C7.89348 12.2075 7.89348 12.2075 7.89348 12.2075C7.89348 12.2075 7.89348 12.2075 7.89348 12.2339V12.2603L7.86707 12.2867C7.76145 12.5508 7.81427 12.8148 7.84067 13.1053C8.23675 15.6666 8.63282 18.2015 9.05531 20.7628C9.24015 21.8718 9.39858 22.9544 9.58342 24.0635C9.60982 24.1427 9.60982 24.2483 9.63623 24.3275C9.92669 25.5158 10.7717 26.0703 12.0655 25.859L13.9931 25.5686C14.0987 25.6214 14.1515 25.7534 14.1779 26.0174C14.2043 26.5984 14.3628 27.2057 14.4156 27.7866C14.442 28.1035 14.574 28.1827 14.8909 28.1563C16.1583 28.0507 16.1583 28.0507 15.9735 26.7832C15.9471 26.4927 15.9207 26.2023 15.8415 25.9382C15.7358 25.595 15.7623 25.4101 15.9207 25.2781L16.8713 25.1197C17.0297 25.1725 17.1353 25.3045 17.1353 25.6214C17.1353 25.991 17.241 26.3607 17.2938 26.7304C17.4522 27.7866 17.4522 27.7602 18.5084 27.6282C18.9309 27.5754 19.1421 27.4962 19.0365 26.968C18.9045 26.3871 18.9045 25.7798 18.8253 25.1989C18.8517 25.1725 18.8781 25.1197 18.8781 25.0933L18.8253 24.8028L20.1719 24.5916C20.6208 24.5124 21.0697 24.4067 21.4922 24.1955C21.677 24.1163 21.8355 24.0371 21.9939 23.9314C22.258 23.773 22.522 23.5882 22.7597 23.4033C23.235 23.0073 23.631 22.5055 23.8951 21.9246C24.8193 20.1027 24.6344 18.3335 23.235 16.7492ZM20.3832 20.9476L18.1651 21.2909L17.505 17.1453C17.4522 16.8812 17.4258 16.6436 17.3466 16.4587C17.241 16.1155 17.1089 15.8514 16.9769 15.6666C16.8977 15.561 16.7657 15.4817 16.66 15.4289C16.4488 15.3497 16.1847 15.3233 15.8679 15.3761C15.7094 15.4025 15.551 15.4289 15.3662 15.4817C15.1813 15.5346 15.0229 15.561 14.8909 15.6138L15.8415 21.6606L13.6234 22.0039L12.4352 14.4519C12.8049 14.2935 13.2538 14.1087 13.8347 13.9238C14.4156 13.739 15.0229 13.5806 15.683 13.4749C16.3432 13.3693 16.9241 13.3693 17.373 13.4749C17.8483 13.5806 18.218 13.7654 18.5348 14.0559C18.8517 14.3199 19.0893 14.6896 19.2742 15.1121C19.459 15.5346 19.591 16.0099 19.6702 16.538L20.3832 20.9476Z" fill="#FEFEFE"/>
<path d="M37.6258 9.01246C38.5764 8.7484 39.8175 8.48434 41.3226 8.2467C42.8541 8.00905 44.5176 7.87702 46.366 7.87702C48.1087 7.87702 49.561 8.11468 50.7228 8.58997C51.8847 9.06527 52.8353 9.7254 53.5218 10.5968C54.2083 11.4417 54.71 12.498 55.0005 13.6862C55.291 14.9008 55.423 16.2211 55.423 17.647V29.635H50.4852V18.4391C50.4852 17.3037 50.406 16.3267 50.274 15.5346C50.1155 14.7424 49.8779 14.0823 49.5346 13.5806C49.1913 13.0789 48.7424 12.7092 48.1615 12.4715C47.5806 12.2339 46.8677 12.1283 46.0227 12.1283C45.389 12.1283 44.7552 12.1811 44.0687 12.2603C43.3822 12.3395 42.8805 12.4187 42.5636 12.4715V29.6614H37.6258V9.01246Z" fill="#FEFEFE"/>
<path d="M70.2099 29.9518C68.7048 29.9518 67.1997 29.899 65.6946 29.8198C64.1631 29.7142 62.8429 29.5294 61.7074 29.2389V1.80381C62.3148 1.69819 62.9485 1.59257 63.635 1.48695C64.3216 1.38133 65.0081 1.32851 65.7211 1.2757C66.434 1.22289 67.1205 1.17008 67.8071 1.14368C68.4936 1.11727 69.1537 1.09087 69.7875 1.09087C71.5038 1.09087 73.0881 1.2229 74.5668 1.48695C76.0455 1.751 77.313 2.17349 78.3692 2.78081C79.4518 3.38813 80.2704 4.15388 80.8777 5.15728C81.485 6.13428 81.7755 7.34892 81.7755 8.7748C81.7755 10.0951 81.4586 11.2569 80.8249 12.2075C80.1911 13.1581 79.2934 13.9238 78.1579 14.4784C79.8743 15.0593 81.1417 15.9042 81.9603 17.0133C82.7789 18.1223 83.1749 19.5482 83.1749 21.2645C83.1749 24.1691 82.1187 26.3607 80.0063 27.813C77.8411 29.2389 74.5932 29.9518 70.2099 29.9518ZM66.7508 12.894H70.3684C72.3224 12.894 73.8539 12.6036 74.9629 12.0491C76.0719 11.4946 76.6264 10.4911 76.6264 9.06526C76.6264 7.71859 76.0455 6.7416 74.8837 6.16068C73.7218 5.57977 72.2167 5.31572 70.3684 5.31572C69.5762 5.31572 68.8897 5.34212 68.2824 5.36852C67.675 5.39493 67.1469 5.44774 66.7244 5.50055L66.7508 12.894ZM66.7508 16.934V25.5422C67.3318 25.595 67.9391 25.6478 68.5728 25.6742C69.233 25.7006 69.8139 25.727 70.3684 25.727C71.4246 25.727 72.4016 25.6478 73.3258 25.5158C74.2235 25.3837 75.0157 25.1461 75.7022 24.8028C76.3624 24.4595 76.8905 24.0107 77.2866 23.4297C77.6826 22.8488 77.8675 22.1359 77.8675 21.2381C77.8675 19.6274 77.2866 18.5184 76.1247 17.8846C74.9629 17.2509 73.3258 16.9604 71.2662 16.9604L66.7508 16.934Z" fill="#FEFEFE"/>
<path d="M108.154 1.38132V5.81742H99.467V29.6086H94.2916V5.81742H85.6042V1.38132H108.154Z" fill="#FEFEFE"/>
<path d="M123.654 30.2423C121.542 30.2423 119.641 29.9254 117.951 29.2653C116.261 28.6052 114.835 27.6546 113.673 26.3871C112.511 25.1197 111.613 23.5882 110.98 21.7662C110.346 19.9442 110.056 17.8582 110.056 15.4818C110.056 13.1053 110.425 11.0193 111.138 9.19729C111.851 7.37532 112.854 5.84382 114.096 4.57636C115.337 3.30891 116.815 2.35832 118.505 1.69819C120.195 1.03806 121.991 0.721191 123.918 0.721191C125.08 0.721191 126.136 0.800407 127.087 0.985244C128.038 1.17008 128.856 1.35492 129.569 1.56616C130.282 1.77741 130.863 2.01506 131.312 2.2527C131.761 2.49035 132.104 2.67519 132.289 2.78081L130.784 6.97925C130.124 6.58317 129.199 6.18709 127.985 5.81742C126.77 5.44774 125.476 5.2629 124.05 5.2629C122.836 5.2629 121.674 5.47414 120.618 5.89663C119.561 6.31911 118.637 6.95284 117.871 7.79781C117.106 8.64278 116.498 9.69898 116.05 10.9664C115.627 12.2339 115.389 13.7126 115.389 15.4025C115.389 16.9076 115.548 18.2807 115.891 19.5218C116.234 20.7628 116.762 21.8454 117.449 22.7696C118.162 23.6674 119.06 24.3803 120.142 24.882C121.225 25.3837 122.545 25.6478 124.05 25.6478C125.872 25.6478 127.351 25.4629 128.486 25.0933C129.622 24.7236 130.52 24.3803 131.127 24.0635L132.5 28.2619C132.183 28.4731 131.734 28.6844 131.18 28.922C130.625 29.1333 129.965 29.3445 129.199 29.5558C128.434 29.767 127.589 29.9254 126.638 30.0575C125.767 30.1895 124.737 30.2423 123.654 30.2423Z" fill="#FEFEFE"/>
</svg>
