<svg width="51" height="51" viewBox="0 0 51 51" fill="none" xmlns="http://www.w3.org/2000/svg">
<g id="Vector">
<path d="M32.3659 32.8413H50.5V36.4681H32.3659V32.8413ZM32.3659 40.0949H50.5V43.7218H32.3659V40.0949ZM32.3659 47.3486H50.5V50.9754H32.3659V47.3486ZM25.1123 32.8413C24.1538 32.8631 23.2007 32.6904 22.3108 32.3336C21.4209 31.9768 20.6126 31.4433 19.9346 30.7653C19.2567 30.0874 18.7232 29.279 18.3664 28.3891C18.0095 27.4992 17.8368 26.5462 17.8587 25.5877C17.8368 24.6291 18.0095 23.6761 18.3664 22.7862C18.7232 21.8963 19.2567 21.088 19.9346 20.41C20.6126 19.732 21.4209 19.1985 22.3108 18.8417C23.2007 18.4849 24.1538 18.3122 25.1123 18.334C26.0708 18.3122 27.0238 18.4849 27.9137 18.8417C28.8036 19.1985 29.612 19.732 30.29 20.41C30.9679 21.088 31.5014 21.8963 31.8582 22.7862C32.215 23.6761 32.3877 24.6291 32.3659 25.5877H35.9927C35.9927 23.4357 35.3546 21.3321 34.159 19.5428C32.9635 17.7535 31.2642 16.359 29.2761 15.5354C27.2879 14.7119 25.1002 14.4965 22.9896 14.9163C20.879 15.3361 18.9403 16.3724 17.4186 17.894C15.897 19.4157 14.8607 21.3544 14.4409 23.465C14.0211 25.5756 14.2365 27.7633 15.0601 29.7514C15.8836 31.7396 17.2781 33.4389 19.0674 34.6344C20.8567 35.83 22.9603 36.4681 25.1123 36.4681V32.8413Z" fill="#6DA800"/>
<path d="M49.2398 16.6004L44.9601 9.1872C44.5415 8.46003 43.8834 7.9007 43.0983 7.60471C42.3131 7.30871 41.4496 7.29439 40.6551 7.5642L36.2412 9.05845C35.4806 8.54633 34.6857 8.08706 33.8621 7.68389L32.9481 3.1141C32.7834 2.29225 32.3391 1.55283 31.6908 1.02155C31.0425 0.490277 30.2302 0.199954 29.392 0.199951H20.8327C19.9943 0.200038 19.1818 0.490619 18.5334 1.02225C17.8851 1.55389 17.441 2.29373 17.2766 3.11591L16.3627 7.68207C15.5298 8.08141 14.7257 8.53828 13.9563 9.04938L9.56782 7.5642C8.77378 7.29534 7.91108 7.31014 7.12673 7.60609C6.34238 7.90204 5.68493 8.46082 5.26642 9.1872L0.986774 16.6004C0.567534 17.3263 0.412686 18.175 0.548565 19.0022C0.684443 19.8294 1.10266 20.5839 1.73208 21.1376L5.23378 24.2149C5.20295 24.6719 5.16487 25.1252 5.16487 25.5877C5.16487 26.0555 5.183 26.5179 5.21564 26.9767L1.7339 30.0378C1.10389 30.5909 0.684974 31.3453 0.54843 32.1725C0.411886 32.9997 0.566144 33.8486 0.98496 34.5749L5.2646 41.9881C5.68326 42.7153 6.34132 43.2746 7.12645 43.5706C7.91159 43.8666 8.77512 43.8809 9.56963 43.6111L13.9835 42.1169C14.7439 42.63 15.5388 43.0899 16.3627 43.4933L17.2748 48.0594C17.4392 48.8819 17.8836 49.622 18.5323 50.1537C19.181 50.6853 19.994 50.9757 20.8327 50.9754H25.1124V47.3486H20.8327L19.5452 40.911C17.7641 40.2493 16.1107 39.2849 14.6581 38.0603L8.40724 40.1747L4.1276 32.7615L9.06913 28.4184C8.73105 26.5431 8.72676 24.6228 9.05644 22.7461L4.1276 18.412L8.40724 11.0006L14.6218 13.1042C16.0848 11.8778 17.7511 10.9167 19.5452 10.2644L20.8327 3.82677H29.392L30.6795 10.2644C32.4606 10.9261 34.1139 11.8905 35.5667 13.115L41.8175 11.0006L46.0971 18.4138L41.0232 22.8603L43.4133 25.5877L48.4908 21.1376C49.1208 20.5844 49.5397 19.8301 49.6763 19.0029C49.8128 18.1757 49.6586 17.3267 49.2398 16.6004Z" fill="#6DA800"/>
</g>
</svg>
