<svg width="21" height="20" viewBox="0 0 21 20" fill="none" xmlns="http://www.w3.org/2000/svg">
<path d="M10.5 20C9.13333 20 7.84167 19.7373 6.625 19.212C5.40833 18.6867 4.34567 17.97 3.437 17.062C2.529 16.154 1.81233 15.0917 1.287 13.875C0.761668 12.6583 0.499335 11.3667 0.500001 10C0.500001 8.61667 0.762668 7.32067 1.288 6.112C1.81333 4.90333 2.53 3.84533 3.438 2.938C4.346 2.02933 5.408 1.31267 6.624 0.788C7.84 0.263333 9.132 0.000666667 10.5 0C11.8833 0 13.1793 0.262667 14.388 0.788C15.5967 1.31333 16.6547 2.03 17.562 2.938C18.4707 3.846 19.1873 4.90433 19.712 6.113C20.2367 7.32167 20.4993 8.61733 20.5 10C20.5 11.3667 20.2373 12.6583 19.712 13.875C19.1867 15.0917 18.47 16.1543 17.562 17.063C16.654 17.971 15.5957 18.6877 14.387 19.213C13.1783 19.7383 11.8827 20.0007 10.5 20ZM10.5 17.95C10.9333 17.35 11.3083 16.725 11.625 16.075C11.9417 15.425 12.2 14.7333 12.4 14H8.6C8.8 14.7333 9.05833 15.425 9.375 16.075C9.69167 16.725 10.0667 17.35 10.5 17.95ZM7.9 17.55C7.6 17 7.33734 16.429 7.112 15.837C6.88667 15.245 6.69933 14.6327 6.55 14H3.6C4.08333 14.8333 4.68767 15.5583 5.413 16.175C6.13833 16.7917 6.96733 17.25 7.9 17.55ZM13.1 17.55C14.0333 17.25 14.8627 16.7917 15.588 16.175C16.3133 15.5583 16.9173 14.8333 17.4 14H14.45C14.3 14.6333 14.1127 15.246 13.888 15.838C13.6633 16.43 13.4007 17.0007 13.1 17.55ZM2.75 12H6.15C6.1 11.6667 6.06233 11.3373 6.037 11.012C6.01167 10.6867 5.99933 10.3493 6 10C6 9.65 6.01267 9.31267 6.038 8.988C6.06333 8.66333 6.10067 8.334 6.15 8H2.75C2.66667 8.33333 2.604 8.66267 2.562 8.988C2.52 9.31333 2.49933 9.65067 2.5 10C2.5 10.35 2.521 10.6873 2.563 11.012C2.605 11.3367 2.66733 11.666 2.75 12ZM8.15 12H12.85C12.9 11.6667 12.9377 11.3373 12.963 11.012C12.9883 10.6867 13.0007 10.3493 13 10C13 9.65 12.9873 9.31267 12.962 8.988C12.9367 8.66333 12.8993 8.334 12.85 8H8.15C8.1 8.33333 8.06233 8.66267 8.037 8.988C8.01167 9.31333 7.99933 9.65067 8 10C8 10.35 8.01267 10.6873 8.038 11.012C8.06333 11.3367 8.10067 11.666 8.15 12ZM14.85 12H18.25C18.3333 11.6667 18.396 11.3373 18.438 11.012C18.48 10.6867 18.5007 10.3493 18.5 10C18.5 9.65 18.479 9.31267 18.437 8.988C18.395 8.66333 18.3327 8.334 18.25 8H14.85C14.9 8.33333 14.9377 8.66267 14.963 8.988C14.9883 9.31333 15.0007 9.65067 15 10C15 10.35 14.9873 10.6873 14.962 11.012C14.9367 11.3367 14.8993 11.666 14.85 12ZM14.45 6H17.4C16.9167 5.16667 16.3127 4.44167 15.588 3.825C14.8633 3.20833 14.034 2.75 13.1 2.45C13.4 3 13.6627 3.571 13.888 4.163C14.1133 4.755 14.3007 5.36733 14.45 6ZM8.6 6H12.4C12.2 5.26667 11.9417 4.575 11.625 3.925C11.3083 3.275 10.9333 2.65 10.5 2.05C10.0667 2.65 9.69167 3.275 9.375 3.925C9.05833 4.575 8.8 5.26667 8.6 6ZM3.6 6H6.55C6.7 5.36667 6.88767 4.754 7.113 4.162C7.33833 3.57 7.60067 2.99933 7.9 2.45C6.96667 2.75 6.13733 3.20833 5.412 3.825C4.68667 4.44167 4.08267 5.16667 3.6 6Z" fill="white"/>
</svg>
