<svg width="30" height="27" viewBox="0 0 30 27" fill="none" xmlns="http://www.w3.org/2000/svg">
<path d="M30 3.75C28.8958 4.275 27.7055 4.62 26.4723 4.785C27.7342 3.99 28.7094 2.73 29.1683 1.215C27.978 1.965 26.6587 2.49 25.2677 2.79C24.1348 1.5 22.543 0.75 20.7361 0.75C17.3662 0.75 14.6128 3.63 14.6128 7.185C14.6128 7.695 14.6702 8.19 14.7706 8.655C9.66539 8.385 5.1195 5.82 2.09369 1.935C1.5631 2.88 1.26195 3.99 1.26195 5.16C1.26195 7.395 2.33748 9.375 4.00096 10.5C2.98279 10.5 2.03633 10.2 1.20459 9.75V9.795C1.20459 12.915 3.32696 15.525 6.13767 16.11C5.23527 16.3683 4.2879 16.4043 3.36998 16.215C3.75947 17.4937 4.52228 18.6126 5.55117 19.4144C6.58006 20.2162 7.8233 20.6605 9.10612 20.685C6.93159 22.4857 4.23613 23.459 1.46272 23.445C0.975143 23.445 0.487572 23.415 0 23.355C2.72467 25.185 5.96558 26.25 9.43595 26.25C20.7361 26.25 26.9455 16.44 26.9455 7.935C26.9455 7.65 26.9455 7.38 26.9312 7.095C28.1358 6.195 29.1683 5.055 30 3.75Z" fill="#1E1E1E"/>
</svg>
