<svg width="56" height="56" viewBox="0 0 56 56" fill="none" xmlns="http://www.w3.org/2000/svg">
<path id="Vector" d="M6.84615 22.6607L49.1538 3.42993M28 13.0453V3.42993M22.2308 43.8145L12.6154 20.0453L3 43.8145C3 46.3647 4.01305 48.8104 5.81628 50.6136C7.61952 52.4169 10.0652 53.4299 12.6154 53.4299C15.1655 53.4299 17.6113 52.4169 19.4145 50.6136C21.2177 48.8104 22.2308 46.3647 22.2308 43.8145ZM53 28.4299L43.3846 6.04532L33.7692 28.4299C33.7692 30.9801 34.7823 33.4258 36.5855 35.229C38.3887 37.0323 40.8345 38.0453 43.3846 38.0453C45.9348 38.0453 48.3805 37.0323 50.1837 35.229C51.987 33.4258 53 30.9801 53 28.4299Z" stroke="#6DA800" stroke-width="5" stroke-linecap="round" stroke-linejoin="round"/>
</svg>
