<svg width="51" height="48" viewBox="0 0 51 48" fill="none" xmlns="http://www.w3.org/2000/svg">
<g id="Vector">
<path d="M12.7985 25.3295H38.4235V30.142H40.9235V22.8295H26.861V17.8295H24.361V22.8295H10.2985V30.142H12.7985V25.3295Z" fill="#6DA800"/>
<path d="M19.3611 31.892H3.73608C2.90728 31.892 2.11243 32.2212 1.52638 32.8073C0.940324 33.3933 0.611084 34.1882 0.611084 35.017V44.392C0.611084 45.2208 0.940324 46.0156 1.52638 46.6017C2.11243 47.1877 2.90728 47.517 3.73608 47.517H19.3611C20.1899 47.517 20.9847 47.1877 21.5708 46.6017C22.1568 46.0156 22.4861 45.2208 22.4861 44.392V35.017C22.4861 34.1882 22.1568 33.3933 21.5708 32.8073C20.9847 32.2212 20.1899 31.892 19.3611 31.892ZM3.73608 44.392V35.017H19.3611V44.392H3.73608Z" fill="#6DA800"/>
<path d="M47.4861 31.892H31.8611C31.0323 31.892 30.2374 32.2212 29.6514 32.8073C29.0653 33.3933 28.7361 34.1882 28.7361 35.017V44.392C28.7361 45.2208 29.0653 46.0156 29.6514 46.6017C30.2374 47.1877 31.0323 47.517 31.8611 47.517H47.4861C48.3149 47.517 49.1097 47.1877 49.6958 46.6017C50.2818 46.0156 50.6111 45.2208 50.6111 44.392V35.017C50.6111 34.1882 50.2818 33.3933 49.6958 32.8073C49.1097 32.2212 48.3149 31.892 47.4861 31.892ZM31.8611 44.392V35.017H47.4861V44.392H31.8611Z" fill="#6DA800"/>
<path d="M17.7986 16.267H33.4236C34.2524 16.267 35.0472 15.9377 35.6333 15.3517C36.2193 14.7656 36.5486 13.9708 36.5486 13.142V3.76697C36.5486 2.93817 36.2193 2.14331 35.6333 1.55726C35.0472 0.971208 34.2524 0.641968 33.4236 0.641968H17.7986C16.9698 0.641968 16.1749 0.971208 15.5889 1.55726C15.0028 2.14331 14.6736 2.93817 14.6736 3.76697V13.142C14.6736 13.9708 15.0028 14.7656 15.5889 15.3517C16.1749 15.9377 16.9698 16.267 17.7986 16.267ZM17.7986 3.76697H33.4236V13.142H17.7986V3.76697Z" fill="#6DA800"/>
</g>
</svg>
