<svg width="51" height="47" viewBox="0 0 51 47" fill="none" xmlns="http://www.w3.org/2000/svg">
<path id="Vector" d="M43.6818 0.975342H20.9545C19.1463 0.975342 17.412 1.69368 16.1334 2.97234C14.8547 4.251 14.1364 5.98523 14.1364 7.79352V23.7026C14.1364 25.5109 14.8547 27.2451 16.1334 28.5238C17.412 29.8025 19.1463 30.5208 20.9545 30.5208H43.6818C45.4901 30.5208 47.2243 29.8025 48.503 28.5238C49.7817 27.2451 50.5 25.5109 50.5 23.7026V7.79352C50.5 5.98523 49.7817 4.251 48.503 2.97234C47.2243 1.69368 45.4901 0.975342 43.6818 0.975342ZM45.9545 23.7026C45.9545 24.3054 45.7151 24.8835 45.2889 25.3097C44.8627 25.7359 44.2846 25.9753 43.6818 25.9753H20.9545C20.3518 25.9753 19.7737 25.7359 19.3475 25.3097C18.9213 24.8835 18.6818 24.3054 18.6818 23.7026V7.79352C18.6818 7.19076 18.9213 6.61268 19.3475 6.18646C19.7737 5.76024 20.3518 5.5208 20.9545 5.5208H43.6818C44.2846 5.5208 44.8627 5.76024 45.2889 6.18646C45.7151 6.61268 45.9545 7.19076 45.9545 7.79352V23.7026ZM38 14.6117C37.1586 14.6146 36.3484 14.9305 35.7273 15.4981C35.2386 15.0539 34.6313 14.7612 33.9794 14.6556C33.3275 14.55 32.6589 14.636 32.055 14.9032C31.451 15.1704 30.9377 15.6073 30.5774 16.1607C30.217 16.7142 30.0252 17.3604 30.0252 18.0208C30.0252 18.6812 30.217 19.3274 30.5774 19.8809C30.9377 20.4343 31.451 20.8712 32.055 21.1384C32.6589 21.4056 33.3275 21.4916 33.9794 21.386C34.6313 21.2804 35.2386 20.9877 35.7273 20.5435C36.1377 20.9165 36.6329 21.1838 37.17 21.3221C37.7071 21.4604 38.2698 21.4656 38.8093 21.3372C39.3489 21.2088 39.8489 20.9508 40.2662 20.5854C40.6834 20.22 41.0052 19.7583 41.2036 19.2404C41.402 18.7225 41.4711 18.1641 41.4049 17.6134C41.3386 17.0628 41.139 16.5366 40.8234 16.0806C40.5077 15.6246 40.0856 15.2524 39.5936 14.9965C39.1016 14.7405 38.5546 14.6084 38 14.6117ZM34.5909 35.0662C33.9881 35.0662 33.4101 35.3057 32.9838 35.7319C32.5576 36.1581 32.3182 36.7362 32.3182 37.339V39.6117C32.3182 40.2145 32.0787 40.7925 31.6525 41.2188C31.2263 41.645 30.6482 41.8844 30.0455 41.8844H7.31818C6.71542 41.8844 6.13734 41.645 5.71112 41.2188C5.2849 40.7925 5.04545 40.2145 5.04545 39.6117V30.5208H7.31818C7.92095 30.5208 8.49902 30.2813 8.92524 29.8551C9.35146 29.4289 9.59091 28.8508 9.59091 28.2481C9.59091 27.6453 9.35146 27.0672 8.92524 26.641C8.49902 26.2148 7.92095 25.9753 7.31818 25.9753H5.04545V23.7026C5.04545 23.0998 5.2849 22.5218 5.71112 22.0956C6.13734 21.6693 6.71542 21.4299 7.31818 21.4299C7.92095 21.4299 8.49902 21.1904 8.92524 20.7642C9.35146 20.338 9.59091 19.7599 9.59091 19.1572C9.59091 18.5544 9.35146 17.9763 8.92524 17.5501C8.49902 17.1239 7.92095 16.8844 7.31818 16.8844C5.50989 16.8844 3.77566 17.6028 2.497 18.8814C1.21834 20.1601 0.5 21.8943 0.5 23.7026V39.6117C0.5 41.42 1.21834 43.1542 2.497 44.4329C3.77566 45.7115 5.50989 46.4299 7.31818 46.4299H30.0455C31.8537 46.4299 33.588 45.7115 34.8666 44.4329C36.1453 43.1542 36.8636 41.42 36.8636 39.6117V37.339C36.8636 36.7362 36.6242 36.1581 36.198 35.7319C35.7718 35.3057 35.1937 35.0662 34.5909 35.0662ZM11.8636 37.339H14.1364C14.7391 37.339 15.3172 37.0995 15.7434 36.6733C16.1696 36.2471 16.4091 35.669 16.4091 35.0662C16.4091 34.4635 16.1696 33.8854 15.7434 33.4592C15.3172 33.033 14.7391 32.7935 14.1364 32.7935H11.8636C11.2609 32.7935 10.6828 33.033 10.2566 33.4592C9.83036 33.8854 9.59091 34.4635 9.59091 35.0662C9.59091 35.669 9.83036 36.2471 10.2566 36.6733C10.6828 37.0995 11.2609 37.339 11.8636 37.339Z" fill="#6DA800"/>
</svg>
